<?xml version="1.0" encoding="utf-8"?>
<!-- Generator: Adobe Illustrator 22.1.0, SVG Export Plug-In . SVG Version: 6.00 Build 0)  -->
<svg version="1.1" id="Camada_1" xmlns="http://www.w3.org/2000/svg" xmlns:xlink="http://www.w3.org/1999/xlink" x="0px" y="0px"
	 viewBox="0 0 120 30" style="enable-background:new 0 0 120 30;" xml:space="preserve">
<style type="text/css">
	.st0{fill:#1D263E;}
	.st1{fill:#3A497D;}
	.st2{fill:#F2F4F7;}
	.st3{fill:none;}
</style>
<path class="st0" d="M80,30H17c-1.1,0-2-0.9-2-2V2c0-1.1,0.9-2,2-2h63V30z"/>
<path class="st1" d="M118,30H80V0h38c1.1,0,2,0.9,2,2v26C120,29.1,119.1,30,118,30z"/>
<path class="st2" d="M29.1,18.7c0,0.1,0,0.2,0,0.2c0,0.1,0,0.1,0,0.1s0,0.1-0.1,0.1h-0.1h-3.6c-0.1,0-0.2,0-0.3-0.1
	c-0.1-0.1-0.1-0.2-0.1-0.3v-7.6V11c0,0,0,0,0.1-0.1c0,0,0.1,0,0.2,0s0.2,0,0.3,0c0.1,0,0.2,0,0.3,0s0.1,0,0.2,0c0,0,0.1,0,0.1,0.1
	s0,0.1,0,0.1v7.1H29h0.1c0,0,0.1,0,0.1,0.1v0.1C29.1,18.6,29.1,18.7,29.1,18.7z M32.2,19C32.2,19.1,32.2,19.1,32.2,19
	c0,0.1-0.1,0.1-0.1,0.1s-0.1,0-0.2,0s-0.2,0-0.3,0c-0.1,0-0.2,0-0.3,0c-0.1,0-0.1,0-0.2,0S31,19.1,31,19s0-0.1,0-0.1V11v-0.1
	c0,0,0.1,0,0.1-0.1c0,0,0.1,0,0.2,0s0.2,0,0.3,0c0.1,0,0.2,0,0.3,0c0.1,0,0.1,0,0.2,0c0,0,0.1,0,0.1,0.1s0,0.1,0,0.1V19z M40.7,18.1
	c0,0.1,0,0.1,0,0.2s0,0.1,0,0.1v0.1c0,0,0,0.1-0.1,0.1c0,0-0.1,0.1-0.3,0.2c-0.1,0.1-0.3,0.2-0.5,0.3c-0.2,0.1-0.4,0.2-0.7,0.2
	c-0.3,0.1-0.5,0.1-0.9,0.1c-0.5,0-1-0.1-1.4-0.3c-0.4-0.2-0.8-0.4-1.1-0.8C35.4,18,35.2,17.5,35,17s-0.2-1.1-0.2-1.8
	s0.1-1.3,0.3-1.8s0.4-1,0.7-1.4s0.7-0.7,1.1-0.8c0.4-0.1,0.9-0.3,1.5-0.3c0.2,0,0.5,0,0.7,0.1c0.2,0,0.4,0.1,0.6,0.2
	c0.2,0.1,0.4,0.1,0.5,0.2c0.1,0.1,0.3,0.2,0.3,0.2c0.1,0.1,0.1,0.1,0.1,0.1v0.1v0.1c0,0.1,0,0.1,0,0.2c0,0.1,0,0.2,0,0.2
	c0,0.1,0,0.1,0,0.1s0,0.1-0.1,0.1h-0.1c-0.1,0-0.1,0-0.2-0.1c-0.1-0.1-0.2-0.2-0.4-0.3s-0.4-0.2-0.6-0.3c-0.2-0.1-0.5-0.1-0.9-0.1
	s-0.7,0.1-1,0.2c-0.3,0.1-0.6,0.4-0.8,0.6c-0.2,0.3-0.4,0.6-0.5,1s-0.2,0.9-0.2,1.4s0.1,1,0.2,1.4s0.3,0.7,0.5,1s0.5,0.5,0.8,0.6
	s0.7,0.2,1,0.2s0.6,0,0.9-0.1c0.2-0.1,0.5-0.2,0.6-0.3c0.2-0.1,0.3-0.2,0.4-0.3c0.1-0.1,0.2-0.1,0.3-0.1h0.1c0,0,0,0,0.1,0.1
	c0.1,0.1,0,0.1,0,0.1C40.7,17.9,40.7,18,40.7,18.1z M47.5,18.8c0,0.1,0,0.1,0,0.2s0,0.1,0,0.1s0,0.1-0.1,0.1h-0.1h-3.9
	c-0.1,0-0.2,0-0.3-0.1C43,19,43,18.9,43,18.8v-7.3c0-0.2,0-0.3,0.1-0.3c0.1-0.1,0.2-0.1,0.3-0.1h3.9h0.1c0,0,0,0,0.1,0.1v0.1
	c0,0.1,0,0.1,0,0.2c0,0.1,0,0.1,0,0.2c0,0.1,0,0.1,0,0.1s0,0.1-0.1,0.1s-0.1,0-0.1,0H44v2.6h2.8h0.1c0,0,0.1,0,0.1,0.1v0.1
	c0,0,0,0.1,0,0.2c0,0.1,0,0.1,0,0.2s0,0.1,0,0.1s0,0.1-0.1,0.1h-0.1H44v2.9h3.3h0.1c0,0,0.1,0,0.1,0.1v0.1
	C47.5,18.6,47.5,18.7,47.5,18.8z M56.2,18.8c0,0.1,0,0.2,0,0.2c0,0.1-0.1,0.1-0.1,0.1s-0.1,0.1-0.2,0.1c-0.1,0-0.1,0-0.2,0h-0.4
	c-0.1,0-0.2,0-0.3,0s-0.2-0.1-0.2-0.1s-0.2-0.1-0.2-0.3c-0.1-0.1-0.2-0.2-0.2-0.4l-2.5-4.7c-0.1-0.2-0.3-0.5-0.4-0.8
	c-0.1-0.3-0.3-0.5-0.4-0.8l0,0c0,0.3,0,0.6,0,0.9c0,0.3,0,0.6,0,0.9v5V19c0,0,0,0-0.1,0.1c0,0-0.1,0-0.2,0c-0.1,0-0.2,0-0.3,0
	s-0.2,0-0.3,0s-0.1,0-0.2,0c0,0-0.1,0-0.1-0.1v-0.1v-7.6c0-0.2,0-0.3,0.1-0.4c0.1-0.1,0.2-0.1,0.3-0.1H51c0.1,0,0.2,0,0.3,0
	s0.2,0.1,0.2,0.1c0.1,0,0.1,0.1,0.2,0.2c0.1,0.1,0.1,0.2,0.2,0.3l1.9,3.6c0.1,0.2,0.2,0.4,0.3,0.6c0.1,0.2,0.2,0.4,0.3,0.6
	s0.2,0.4,0.3,0.6s0.2,0.4,0.3,0.6l0,0c0-0.3,0-0.7,0-1c0-0.4,0-0.7,0-1v-4.5v-0.1c0,0,0,0,0.1-0.1c0,0,0.1,0,0.2,0
	c0.1,0,0.2,0,0.3,0s0.2,0,0.3,0s0.1,0,0.2,0c0,0,0.1,0,0.1,0.1v0.1C56.2,10.9,56.2,18.8,56.2,18.8z M63.6,16.9c0,0.4-0.1,0.7-0.2,1
	c-0.1,0.3-0.3,0.6-0.6,0.8c-0.3,0.2-0.5,0.4-0.9,0.5c-0.3,0.1-0.7,0.2-1.1,0.2c-0.3,0-0.5,0-0.8-0.1c-0.2,0-0.4-0.1-0.6-0.2
	C59.2,19,59.1,19,59,18.9s-0.2-0.1-0.3-0.2s-0.1-0.1-0.1-0.2s0-0.2,0-0.3c0-0.1,0-0.2,0-0.2c0-0.1,0-0.1,0-0.1s0-0.1,0.1-0.1h0.1
	c0.1,0,0.1,0,0.3,0.1c0.1,0.1,0.2,0.2,0.4,0.2c0.2,0.1,0.4,0.2,0.6,0.2c0.2,0.1,0.5,0.1,0.8,0.1c0.2,0,0.5,0,0.7-0.1
	s0.4-0.2,0.5-0.3c0.1-0.1,0.3-0.3,0.3-0.4c0.1-0.2,0.1-0.4,0.1-0.6s-0.1-0.4-0.2-0.6s-0.2-0.3-0.4-0.4s-0.4-0.2-0.6-0.3
	c-0.2-0.1-0.4-0.2-0.7-0.3c-0.2-0.1-0.5-0.2-0.7-0.4s-0.4-0.3-0.6-0.5c-0.2-0.2-0.3-0.4-0.4-0.6c-0.1-0.2-0.2-0.5-0.2-0.9
	c0-0.3,0.1-0.6,0.2-0.9c0.1-0.3,0.3-0.5,0.5-0.7s0.5-0.3,0.8-0.4c0.3-0.1,0.6-0.1,1-0.1c0.2,0,0.4,0,0.5,0c0.2,0,0.4,0.1,0.5,0.1
	c0.2,0.1,0.3,0.1,0.4,0.2c0.1,0.1,0.2,0.1,0.3,0.2l0.1,0.1v0.1v0.1c0,0.1,0,0.1,0,0.2c0,0.1,0,0.1,0,0.2c0,0.1,0,0.1,0,0.1
	s0,0.1-0.1,0.1c0,0,0,0-0.1,0c0,0-0.1,0-0.2-0.1s-0.2-0.1-0.4-0.2c-0.1-0.1-0.3-0.1-0.5-0.2c-0.2-0.1-0.4-0.1-0.7-0.1
	c-0.2,0-0.4,0-0.6,0.1c-0.2,0.1-0.3,0.1-0.4,0.2s0,0.3,0,0.5c-0.1,0.1-0.1,0.3-0.1,0.4c0,0.2,0.1,0.4,0.2,0.6
	c0.1,0.2,0.2,0.3,0.4,0.4s0.4,0.2,0.6,0.3s0.5,0.2,0.7,0.3s0.5,0.2,0.7,0.4c0.2,0.1,0.4,0.3,0.6,0.5c0.2,0.2,0.3,0.4,0.4,0.6
	C63.6,16.3,63.6,16.6,63.6,16.9z M70.5,18.8c0,0.1,0,0.1,0,0.2s0,0.1,0,0.1s0,0.1-0.1,0.1h-0.1h-3.9c-0.1,0-0.2,0-0.3-0.1
	C66,19,66,18.9,66,18.8v-7.3c0-0.2,0-0.3,0.1-0.3c0.1-0.1,0.2-0.1,0.3-0.1h3.9h0.1c0,0,0,0,0.1,0.1v0.1c0,0.1,0,0.1,0,0.2
	c0,0.1,0,0.1,0,0.2c0,0.1,0,0.1,0,0.1s0,0.1-0.1,0.1c-0.1,0-0.1,0-0.1,0H67v2.6h2.8h0.1c0,0,0.1,0,0.1,0.1v0.1c0,0,0,0.1,0,0.2
	c0,0.1,0,0.1,0,0.2s0,0.1,0,0.1s0,0.1-0.1,0.1h-0.1H67v2.9h3.3h0.1c0,0,0.1,0,0.1,0.1v0.1C70.5,18.6,70.5,18.7,70.5,18.8z"/>
<path class="st2" d="M99.1,19v0.1L99,19.2c-0.1,0-0.1,0-0.2,0.1s-0.2,0-0.4,0c-0.2,0-0.3,0-0.4,0s-0.2,0-0.2-0.1
	c-0.1,0-0.1,0-0.1-0.1V19v-6.7l0,0L95.1,19c0,0.1,0,0.1-0.1,0.1c0,0-0.1,0.1-0.2,0.1s-0.1,0-0.3,0c-0.1,0-0.2,0-0.4,0s-0.3,0-0.4,0
	s-0.2,0-0.3-0.1S93.3,19,93.2,19l-0.1-0.1l-2.3-6.7l0,0V19v0.1l-0.1,0.1c-0.1,0-0.1,0-0.2,0.1s-0.2,0-0.4,0c-0.2,0-0.3,0-0.4,0
	s-0.2,0-0.2-0.1c-0.1,0-0.1,0-0.1-0.1V19v-7.3c0-0.2,0.1-0.4,0.2-0.5s0.3-0.2,0.5-0.2h1.1c0.2,0,0.4,0,0.5,0s0.3,0.1,0.4,0.2
	c0.1,0.1,0.2,0.2,0.3,0.3c0.1,0.1,0.1,0.3,0.2,0.4l1.8,4.9l0,0l1.8-4.9c0.1-0.2,0.1-0.3,0.2-0.5s0.1-0.2,0.2-0.3s0.2-0.1,0.3-0.2
	c0.1,0,0.3,0,0.4,0h1.1c0.1,0,0.2,0,0.3,0c0.1,0,0.2,0.1,0.2,0.1c0.1,0.1,0.1,0.1,0.1,0.2c0,0.1,0,0.2,0,0.3L99.1,19L99.1,19z
	 M103.3,19v0.1l-0.1,0.1c-0.1,0-0.1,0-0.3,0.1c-0.1,0-0.2,0-0.4,0c-0.2,0-0.3,0-0.4,0s-0.2,0-0.3-0.1c-0.1,0-0.1,0-0.1-0.1V19v-7.8
	v-0.1l0.1-0.1c0,0,0.2,0,0.3-0.1s0.2,0,0.4,0c0.2,0,0.3,0,0.4,0s0.2,0,0.3,0.1c0.1,0,0.1,0,0.1,0.1s0,0.1,0,0.1V19z M111.3,11.7
	c0,0.1,0,0.2,0,0.3s0,0.2,0,0.2c0,0.1,0,0.1-0.1,0.1h-0.1H109V19v0.1l-0.1,0.1c-0.1,0-0.1,0-0.3,0.1c-0.1,0-0.2,0-0.4,0
	c-0.2,0-0.3,0-0.4,0s-0.2,0-0.3-0.1c-0.1,0-0.1,0-0.1-0.1V19v-6.6h-2.1h-0.1l-0.1-0.1c0-0.1,0-0.1,0-0.2c0-0.1,0-0.2,0-0.3
	s0-0.2,0-0.3s0-0.2,0-0.2c0-0.1,0-0.1,0.1-0.1h0.1h5.8h0.1l0.1,0.1c0,0.1,0,0.1,0,0.2S111.3,11.6,111.3,11.7z"/>
<rect class="st3" width="15" height="30"/>
</svg>
